<svg enable-background="new 0 0 885.2 877" viewBox="0 0 885.2 877" xmlns="http://www.w3.org/2000/svg"><path d="m141.8 0c-78.4 0-141.8 62.9-141.8 140.5v596c0 77.6 63.4 140.5 141.8 140.5h601.7c78.3 0 141.8-62.9 141.8-140.5v-6.1c-2.6-1.1-230.1-95.1-345.7-150.1-78 95.1-178.6 152.7-283 152.7-176.6 0-236.6-153.1-153-253.9 18.2-22 49.2-43 97.4-54.7 75.3-18.3 195.2 11.4 307.5 48.2 20.2-36.9 37.2-77.5 49.9-120.7h-346.2v-34.7h178.5v-62.3h-216.2v-34.8h216.2v-88.8s0-15 15.3-15h87.3v103.8h213.7v34.8h-213.8v62.3h174.4c-16.7 67.8-42 130.1-73.9 184.9 52.9 19 100.5 37 135.9 48.7 118.1 39.2 151.3 43.9 155.5 44.4v-454.7c.1-77.6-63.3-140.5-141.6-140.5zm97.1 475.2c-7.6.1-15.2.5-22.9 1.2-22.1 2.2-63.6 11.9-86.3 31.8-68 58.8-27.3 166.3 110.4 166.3 80.1 0 160-50.7 222.9-131.9-81.1-39.2-150.8-68.3-224.1-67.4z" fill="#00a1e9"/></svg>