<svg enable-background="new 0 0 76.07 67.92" viewBox="0 0 76.07 67.92" xmlns="http://www.w3.org/2000/svg"><path d="m39.39 4.22c9.49 1.33 18.99 2.59 28.46 4.01 5.03.75 8.02 3.96 8.09 9.1.17 11.22.17 22.45-.01 33.67-.07 4.35-2.23 7.74-6.86 8.48-9.32 1.48-18.67 2.69-28.02 4.01-.37-3.23.01-5.36 3.67-7.33 8.15-4.38 12.08-11.89 12.51-21.2.12-2.56-.54-3.55-3.25-3.45-5.48.2-10.98.16-16.46.13-2.04-.01-3.5.07-3.35 2.84.16 2.89 1.92 2.51 3.78 2.44 4.16-.14 8.31-.22 12.47-.35 1.66-.05 3.11-.06 2.39 2.33-1.99 6.61-5.86 11.46-12.72 13.43-6.14 1.77-13.32-.74-17.38-5.91-5.93-7.55-5.24-19.41 1.52-25.86 6.56-6.27 16.6-6.07 24.33.72 1.56 1.37 2.46 1.8 4.05.27 1.65-1.59.5-2.67-.47-3.75-2.02-2.23-4.28-4.4-7.21-5.13-4.7-1.17-6.56-3.78-5.54-8.45z" fill="#d31568"/><path d="m35.37 64.39c-7.71 1.13-15.42 2.35-23.14 3.37-7.58 1-12.16-2.99-12.19-10.59-.06-15.4-.04-30.8-.01-46.2.02-7.57 4.8-11.79 12.62-10.84 7.25.88 14.45 2.15 21.67 3.25.68 4.58-.3 7.12-5.76 8.45-10.04 2.45-16.86 13.28-16.2 23.53.75 11.62 8.19 21.33 18.53 22.94 4.37.69 5.2 2.45 4.48 6.09z" fill="#d31467"/></svg>