<svg viewBox="0 0 91.42 91.42" xmlns="http://www.w3.org/2000/svg"><rect fill="#bd1f21" height="91.42" rx="16.13" width="91.42"/><g fill-rule="evenodd"><path d="m89.88 55.22v19.07c0 8.57-7.01 15.59-15.59 15.59h-57.16c-8.57 0-15.59-7.01-15.59-15.59v-19.37c11.38 6.39 27.09 10.34 44.44 10.34s32.57-3.83 43.9-10.04z" fill="#fff"/><path d="m37.13 70.05h6.08c-.94 0-1.87.69-2.09 1.62l-2.9 12.43c-.21.89.39 1.62 1.34 1.62h-6.08c-.94 0-1.54-.73-1.34-1.62l2.9-12.43c.21-.89 1.15-1.62 2.09-1.62z" fill="#bd1f21"/><path d="m43.46 70.05h7.32c-1.08 0-2.12.73-2.35 1.62l-3.26 12.43c-.23.89.5 1.62 1.59 1.62h-7c-1.76 0-1.74-.99-1.59-1.62l2.94-12.43c.21-.89.77-1.62 2.35-1.62z" fill="#003e7f"/><path d="m50.62 70.05h6.64c.99 0 1.6.76 1.36 1.69l-3.14 12.29c-.24.93-1.24 1.69-2.23 1.69h-6.64c-.89 0-1.72-.51-1.41-1.71l3.2-12.27c.24-.93 1.24-1.69 2.23-1.69z" fill="#107c8b"/></g><g fill="#fff"><g fill-rule="evenodd"><path d="m28.11 48.48c-.12.49-.25.9-.4 1.25-.24.53-.62 1.02-1.15 1.46-.75.62-1.63.93-2.63.93s-1.75-.32-2.18-.95c-.23-.33-.33-.75-.33-1.26 0-.35.08-.84.22-1.44l1.11-4.68h1.93l-1.04 4.74c-.08.35-.14.61-.17.79-.09.55.04.93.42 1.15.15.09.33.14.55.14.47 0 .87-.18 1.19-.54.24-.27.47-.78.63-1.54l1.04-4.74h1.93l-1.11 4.68z"/><path d="m38.54 44.04c-.08.3-.24.56-.49.77s-.52.31-.81.31-.5-.11-.64-.32-.18-.47-.1-.77c.17-.67.78-1.08 1.3-1.08.28 0 .5.11.64.31.14.21.18.46.1.76zm-1.69 8.09-1.73-.25 1.16-6.15 1.69.17z"/><path d="m58.39 46.6c-.32 1.28-1.92 2.4-3.22 2.38l-1.3-.02-.71 3.17h-1.73l1.96-8.5 3.45.16c1.75.08 1.9 1.37 1.55 2.8zm-1.77-.13c.29-1.16.08-1.6-1.07-1.6h-.69l-.58 2.77c.97.02 2.04.06 2.35-1.16z"/><path d="m42.23 45.73c1.63 0 2.63 1.38 2.22 3.08s-2.06 3.07-3.69 3.07-2.63-1.38-2.22-3.07c.41-1.7 2.06-3.08 3.69-3.08zm-.12 1.52c-.76 0-1.29.87-1.5 1.77-.2.89-.1 1.43.39 1.62s1.24-.57 1.5-1.42.37-1.96-.39-1.96z"/><path d="m33.83 52.13h-1.61l.77-3.72c.15-.74.28-1.61-.62-1.66-.96-.06-1.37.42-1.53 1.23l-.8 4.15h-1.45l.64-4.15c.14-.88.22-1.25.8-1.71 1.02-.82 2.76-.87 3.91-.25.51.27.68 1.37.51 2.4l-.61 3.72z"/><path d="m50.28 52.13h-1.61l.77-3.72c.15-.74.28-1.61-.62-1.66-.96-.06-1.37.42-1.53 1.23l-.8 4.15h-1.45l.64-4.15c.14-.88.22-1.25.8-1.71 1.02-.82 2.76-.87 3.91-.25.51.27.68 1.37.51 2.4l-.61 3.72z"/><path d="m59.84 52.13c-.65 0-1.12-.17-1.43-.5s-.43-.76-.36-1.28c.04-.31.14-.59.3-.84s.36-.46.59-.61.49-.27.76-.35c.2-.05.51-.11.91-.16.82-.1 1.27-.22 1.67-.36.05-.3.24-1.03.03-1.19-.29-.22-.43-.2-.93-.2-.47 0-.91.14-1.24.26-.28.11-.45.18-.66.32l-.02-.91c.4-.41 1.07-.72 2.02-.72.5 0 .91.06 1.21.19s.51.28.63.48c.12.19.2.43.22.72 0 .18-.02.51-.08.98l-.18 1.41c-.07.55-.11 1.77-.09 2.36-.41.07-2.94.4-3.36.4zm2.3-3.1c-.38.16-.73.12-1.47.23-.42.06-.72.13-.9.21s-.33.19-.44.34-.18.32-.2.5c-.04.28.03.52.21.7.18.19.46.28.85.28s.74-.09 1.06-.27.57-.42.75-.73c.25-.42.31-1.04.14-1.27z"/><path d="m65.05 45.89 1.71.03.49 4.06 2.32-4.09h1.69l-4.8 8.33h-1.87l1.34-2.34z"/></g><path d="m10.31 16.86h17.51c.87 0 1.57.71 1.57 1.57 0 .87-.71 1.57-1.57 1.57h-17.51c-.87 0-1.57-.71-1.57-1.57 0-.87.71-1.57 1.57-1.57z"/><path d="m36.53 20.64c.87 0 1.57.71 1.57 1.57v14.36c0 .87-.71 1.57-1.57 1.57-.87 0-1.57-.71-1.57-1.57v-14.36c0-.87.71-1.57 1.57-1.57z"/><path d="m69.86 24.32 5.71 5.71c.34.34.16 1.04-.16 1.41-.41.48-1.08.5-1.41.16l-5.71-5.71c-.34-.34-.18-1.07.16-1.41.32-.32 1.05-.52 1.41-.16z" fill-rule="evenodd"/><path d="m62.37 36.41v-13l3.08-3.08c.05.15.07.3.07.46v15.61c0 .87-.71 1.57-1.57 1.57-.87 0-1.57-.71-1.57-1.57z" fill-rule="evenodd"/><path d="m52.99 26.6.53-.55.02-4.9c.04-1.25-.86-1.43-2.24-1.46-4.14-.03-8.29-.05-12.43-.08-.78-.68-1.57-1.35-2.35-2.03-1.02-.72.32-2.96 2.03-1.62.57.41 1.14.82 1.72 1.23h13.51c1.87.09 2.69 1.2 2.65 3.14v2.71l6.54-6.76c.6-.62 1.6-.64 2.23-.04.62.6.64 1.6.04 2.23l-9.99 10.32c-.78.8-2.72 3.34-3.78 2.3l-6.45-6.32c-.17-.17.38 1.61.2 1.81-1.78 1.9-3.53 3.68-4.26 4.27-1.06.86-2.87-.75-1.72-1.99.87-.95 2.75-2.95 5.51-5.75.51-.52 1.61-1.43 2.47-.58l5 4.95c.24-.32.45-.56.76-.87z" fill-rule="evenodd"/><path d="m75.77 34.93h2.87l-.07-12.55h-9.21c-.87 0-1.57-.71-1.57-1.57 0-.87.71-1.57 1.57-1.57h9.19v-2.13c-.02-.87.7-1.57 1.56-1.57.87 0 1.57.71 1.57 1.57v2.13h2.03c.87 0 1.57.71 1.57 1.57 0 .87-.71 1.57-1.57 1.57h-2.03v13.29c0 .87-.71 1.72-1.57 1.72-1.21 0-3.16-.01-4.39 0-.86 0-1.05-2.46.05-2.46z" fill-rule="evenodd"/><path d="m50.53 35.52h2.87l-.02-3.21c.75-.61 1.47-1.5 1.88-1.92l1.18-1.22v7.09c0 .87-.71 1.72-1.57 1.72-1.21 0-3.16-.01-4.39 0-.86 0-1.05-2.46.05-2.46z" fill-rule="evenodd"/><path d="m12.46 27.32c-.87 2.09-1.74 4.17-2.61 6.26-.59 2.19.67 4.41 2.61 4.41h14.35c2.42 0 3.9-2.26 3.2-4.41-.47-1.16-.95-2.32-1.42-3.48-1.02-1.56-3.26-.23-2.76 1.39.3.49.58 1.17.85 1.84.45 1.21-.13 1.56-1.33 1.55-3.59 0-7.18 0-10.77 0-.97 0-1.36-.52-.99-1.73l2.13-5.82h13.82c.87 0 1.57-.71 1.57-1.57 0-.87-.71-1.57-1.57-1.57h-20.61c-.87 0-1.57.71-1.57 1.57 0 .87.71 1.57 1.57 1.57h3.53z" fill-rule="evenodd"/></g></svg>