<svg viewBox="0 0 192.19 192.19" xmlns="http://www.w3.org/2000/svg"><rect fill="#b2a5cc" height="192.19" rx="30.06" width="192.19"/><path d="m28.66 99.19c.27-3.75 2.15-5.62 5.62-5.62h53.81c3.48 0 5.09 1.87 4.82 5.62l-3.95 53.98c-.27 3.75-2.15 5.62-5.62 5.62h-53.88c-3.49 0-5.09-1.87-4.82-5.62zm132.8-18.17c-.27 3.75-2.15 5.62-5.62 5.62h-115.19c-3.49 0-5.09-1.87-4.82-5.62l3.07-42c.27-3.72 2.15-5.6 5.62-5.62h115.2c3.48 0 5.08 1.87 4.82 5.62zm-31.28-31.85c.24-3.21-1.71-4.82-5.82-4.82h-46.05c-4.11 0-6.29 1.61-6.52 4.82s1.71 4.81 5.82 4.78h46.05c4.11 0 6.29-1.59 6.52-4.78zm-9.21 26.51c4.85 0 7.42-1.91 7.69-5.74v-.29c.28-3.82-2-5.73-6.86-5.73h-43.81c-4.85 0-7.42 1.91-7.7 5.73v.29c-.28 3.83 2 5.74 6.86 5.74zm-74.29 32.8c-2.2-.03-4.07 1.58-4.36 3.76l-2.87 17.48c-.25 1.67.65 3.3 2.2 3.97l28.23 12.16c1.52.65 3.29.29 4.44-.89.15-.17.27-.36.36-.57.56-1.14.75-2.43.55-3.68l-4.51-29.45c-.1-1.93-1.64-3.46-3.57-3.55l-20.48.77zm20.79 23.45-17.74-17.82h14.46c.87-.02 1.61.65 1.67 1.53l1.61 16.3zm-1.24 5.82-18.88-7.55c-.46-.23-.71-.74-.59-1.24l1.26-8.91 18.22 17.7zm101.3-38.55-3.94 53.98c-.27 3.75-2.15 5.62-5.62 5.62h-53.81c-3.48 0-5.08-1.87-4.82-5.62l3.95-53.98c.27-3.75 2.15-5.62 5.62-5.62h53.81c3.49 0 5.09 1.87 4.82 5.62h-.02zm-39.79 8.52c-2 .14-3.67 1.59-4.08 3.55l-8.84 29.45c-.38 1.2-.38 2.48 0 3.68.06.2.15.4.27.57 1.09 1.2 2.83 1.56 4.31.89l30.02-12.16c1.63-.65 2.72-2.21 2.78-3.97l-.31-17.48c.07-2.01-1.5-3.69-3.51-3.76-.1 0-.2 0-.3 0l-20.35-.77zm.15 7.97c.21-.88.99-1.51 1.9-1.53h14.46l-20.35 17.82 4-16.3zm17.19 4.37-.04 8.91c.02.54-.3 1.04-.8 1.24l-20 7.55z" fill="#fff"/></svg>