<svg viewBox="0 0 24 37" xmlns="http://www.w3.org/2000/svg"><g fill="none" fill-rule="evenodd"><text fill="#666" font-family="PingFangTC-Regular, PingFang TC" font-size="12"><tspan x="0" y="33">客服</tspan></text><path d="m2 0h20v20h-20z" fill="#fff"/><g fill="#8d6d9f" fill-rule="nonzero"><path d="m11.148 20a.164.164 0 0 0 -.065-.035 1.354 1.354 0 0 1 0-2.584c.082-.022.166-.034.25-.035h1.655a1.217 1.217 0 0 1 1.157.955c.03.115.07.15.184.14a6.516 6.516 0 0 0 3.939-1.39 5.185 5.185 0 0 0 1.6-2.549c.095-.31.155-.625.23-.945-.384 0-.733 0-1.077-.06a1.812 1.812 0 0 1 -1.56-1.589c-.03-.73-.03-1.46 0-2.184a1.827 1.827 0 0 1 1.6-1.63l1.027-.05c-.489-4.107-3.964-7.2-8.09-7.2s-7.6 3.093-8.089 7.2c.33 0 .658.025.997.05a1.812 1.812 0 0 1 1.64 1.695c.03.68.03 1.364 0 2.049a1.852 1.852 0 0 1 -1.86 1.714h-1.206a.428.428 0 0 1 -.478-.464v-4.684c.062-1.189.385-2.35.947-3.399a9.07 9.07 0 0 1 3.071-3.498 8.792 8.792 0 0 1 3.55-1.38 8.641 8.641 0 0 1 5.44.835 8.884 8.884 0 0 1 4.83 6.398c.092.494.14.996.145 1.5.02 1.452.02 2.91 0 4.372a5.6 5.6 0 0 1 -.439 1.945 6.031 6.031 0 0 1 -2.129 2.823 6.94 6.94 0 0 1 -3.096 1.174c-.384.055-.772.08-1.156.12-.05 0-.115 0-.135.055-.193.318-.5.55-.858.65h-2.024zm9.004-11.091h-.842a.958.958 0 0 0 -.997.875c-.04.679-.04 1.36 0 2.039.014.433.34.79.768.845.358.03.718.03 1.076 0zm-16.308 3.794h.943a.968.968 0 0 0 .912-.86c.03-.645.04-1.29 0-1.93a.954.954 0 0 0 -.833-.999 7.957 7.957 0 0 0 -1.037 0zm9.05 6.457a.199.199 0 0 0 .094 0c.1-.06.234-.105.29-.195a.5.5 0 0 0 -.4-.77h-1.436a.424.424 0 0 0 -.408.216.5.5 0 0 0 .443.75h1.416z"/><path d="m9.556 8.217h1.944v.783h-2.945v-.641c0-.057.059-.114.1-.161.506-.585 1.015-1.16 1.515-1.748.14-.157.264-.33.37-.518a.819.819 0 0 0 .03-.868c-.184-.265-.49-.38-.778-.295a.947.947 0 0 0 -.568.408c-.038.057-.135.18-.135.18l-.589-.378c.202-.307.45-.573.732-.783a1.463 1.463 0 0 1 1.527.042c.303.19.521.513.601.893s.015.78-.18 1.102a7.082 7.082 0 0 1 -.686.892c-.26.318-.938 1.093-.938 1.093zm5.3-4.215-1.519 2.959h.985v-.9h.608c.028 0 .078.087.082.136v.774h.488v.783h-.484v1.246h-.686v-1.231h-1.818c0-.34-.065-.662.107-.974.472-.876.92-1.761 1.375-2.652.037-.097.124-.155.213-.141.205.005.649 0 .649 0z"/><path d="m9.718 15h-.718v-3.716c0-.22.067-.308.32-.278.128.005.257.005.385 0v1.591c.323-.41.901-.594 1.444-.461.422.07.743.378.791.757.06.355.06 2.09.06 2.09h-.692v-1.664c0-.455-.266-.68-.718-.68a.879.879 0 0 0 -.593.196.695.695 0 0 0 -.259.514c-.026.48-.02 1.651-.02 1.651zm3.282 0v-2.939h.778v.552c.264-.343.716-.57 1.222-.613v.613l-.054.031a1.358 1.358 0 0 0 -.853.363.835.835 0 0 0 -.26.735v1.227z"/></g></g></svg>