<svg xmlns="http://www.w3.org/2000/svg"  viewBox="0 0 64 64"><path fill="#85cbf8" d="M45.77,5H18.23a2,2,0,0,0-1.41.59L2.24,20.16a2,2,0,0,0-.18,2.63L30.41,59.92a2,2,0,0,0,3.18,0L61.94,22.79a2,2,0,0,0-.18-2.63L47.18,5.59A2,2,0,0,0,45.77,5Z"/><path fill="#7bbeeb" d="M47.18,5.59,61.76,20.16a2,2,0,0,1,.18,2.63L33.59,59.92c-.07.1-1.58,0-1.32-.69.91-2.58,3.89-9.81,6.92-18.18,1.35-3.73,3-7.71,4-11.57.18-.71,1.73-5,1.73-5L34.27,5.3S47.08,5.48,47.18,5.59Z"/><path fill="#85cbf8" d="M17.19 5.3L29.58 5.09 19.5 22.92 16.82 5.59 17.19 5.3z"/><path fill="#75b8e5" d="M45.34 22.24L47.18 5.59 41 5 34.27 5.3 44.5 22.92 45.34 22.24z"/><path fill="#9fddff" d="M16.82,5.59,2.24,20.16a2,2,0,0,0-.18,2.63L30.41,59.92c.07.1,1.58,0,1.32-.69-.91-2.58-3.89-9.81-6.92-18.18-1.35-3.73-3-7.71-4-11.57-.18-.71-1.56-4.27-1.73-5A84.52,84.52,0,0,1,16.82,5.59Z"/><path fill="#8d6c9f" d="M62.47,19.46,47.89,4.88A3,3,0,0,0,45.77,4H18.23a3,3,0,0,0-2.12.88L1.53,19.46a3,3,0,0,0-.26,3.94L29.62,60.53a3,3,0,0,0,4.77,0L62.73,23.4A3,3,0,0,0,62.47,19.46Zm-16-13.16,14,14L46,23.73l.9-8.14a1,1,0,1,0-2-.22l-.61,5.53L35.6,6H45.77A1,1,0,0,1,46.48,6.29ZM18,23.73,3.49,20.32,16.18,7.64ZM33.28,6,43.84,24H20.16L30.72,6ZM28.4,6,19.66,20.9,18,6a1,1,0,0,1,.22,0Zm5.43,52,6.54-17.61a1,1,0,0,0-1.87-.7L32,57.13,25.51,39.65a1,1,0,1,0-1.87.7L30.18,58,12.92,35.37A1,1,0,0,0,13,35V34a1,1,0,0,0-1.68-.73l-8.43-11,15.35,3.61,1.66,4.47a1,1,0,1,0,1.88-.7L20.43,26l23.13,0-1.35,3.62a1,1,0,1,0,1.88.7l1.66-4.47L61.1,22.24l-8.43,11A1,1,0,0,0,51,34v1a1,1,0,0,0,.08.37Z"/><path fill="#8d6c9f" d="M27 33a1 1 0 0 0-1 1v2a1 1 0 0 0 2 0V34A1 1 0 0 0 27 33zM32 33a1 1 0 0 0-1 1v2a1 1 0 0 0 2 0V34A1 1 0 0 0 32 33zM37 33a1 1 0 0 0-1 1v2a1 1 0 0 0 2 0V34A1 1 0 0 0 37 33zM42 33a1 1 0 0 0-1 1v2a1 1 0 0 0 2 0V34A1 1 0 0 0 42 33zM47 33a1 1 0 0 0-1 1v2a1 1 0 0 0 2 0V34A1 1 0 0 0 47 33zM17 33a1 1 0 0 0-1 1v2a1 1 0 0 0 2 0V34A1 1 0 0 0 17 33zM22 33a1 1 0 0 0-1 1v2a1 1 0 0 0 2 0V34A1 1 0 0 0 22 33zM46.23 12.92h.11a1 1 0 0 0 1-.89l.22-2a1 1 0 1 0-2-.22l-.22 2A1 1 0 0 0 46.23 12.92z"/></svg>