<svg viewBox="0 0 25 25" xmlns="http://www.w3.org/2000/svg"><path d="m23 12.5a.52.52 0 0 1 -.3.46l-16.31 7.36-2.34 1.06-.92.41-.37.21a.52.52 0 0 1 -.21 0 .55.55 0 0 1 -.34-.13.5.5 0 0 1 -.13-.54l3.26-8.83-3.26-8.83a.5.5 0 0 1 .13-.54.53.53 0 0 1 .55-.13l9.24 4.21 10.65 4.79a.52.52 0 0 1 .35.5z" fill="#1e88e5"/><path d="m22.65 12-19.89-9a.53.53 0 0 0 -.55.09.5.5 0 0 0 -.13.54l3.26 8.87-3.26 8.83a.5.5 0 0 0 .13.54.55.55 0 0 0 .34.13.52.52 0 0 0 .21 0l19.89-9a.5.5 0 0 0 0-.92zm-19.22-7.55 16.7 7.55h-13.91zm2.79 8.55h13.91l-16.7 7.55z" fill="#0d47a1"/></svg>