
<svg viewBox="0 0 50 50" xmlns="http://www.w3.org/2000/svg"><path d="m0 5v40h50v-40zm2 2h46v26h-10.679687l-7-5h-5.90625l-4.085938-4.085937-4.867187.976562-4.304688-6.460937-9.15625 9.15625zm35.5 6c-2.472656 0-4.5 2.027344-4.5 4.5s2.027344 4.5 4.5 4.5 4.5-2.027344 4.5-4.5-2.027344-4.5-4.5-4.5zm0 2c1.390625 0 2.5 1.109375 2.5 2.5s-1.109375 2.5-2.5 2.5-2.5-1.109375-2.5-2.5 1.109375-2.5 2.5-2.5zm-26.65625 6.570313 3.695313 5.539062 5.132812-1.023437 3.914063 3.914062h6.09375l7 5h11.320312v8h-46v-12.585937z"/></svg>