<svg viewBox="0 0 64 64" xmlns="http://www.w3.org/2000/svg"><path d="m58 55h-52c-1.699219 0-3-1.300781-3-3v-38c0-1.699219 1.300781-3 3-3h52c1.699219 0 3 1.300781 3 3v38c0 1.699219-1.300781 3-3 3zm0 0" fill="#bbdef9"/><path d="m38 45h-11l19-24h11zm-15 0h-3l19-24h3zm-6 0h-1l19-24h1zm-14-24h10l-10 12.601562zm58 24h-6l6-7.601562zm0 0" fill="#def0ff"/><path d="m61 21h-58v-7c0-1.699219 1.300781-3 3-3h52c1.699219 0 3 1.300781 3 3zm-3 34h-52c-1.699219 0-3-1.300781-3-3v-7h58v7c0 1.699219-1.300781 3-3 3zm0 0" fill="#85cbf8"/><path d="m23.300781 24 1.199219 2.300781 2.300781 1.199219-2.300781 1.199219-1.199219 2.300781-1.199219-2.300781-2.300781-1.199219 2.300781-1.199219zm10.097657 12.199219.800781 1.5 1.601562.902343-1.601562.796876-.800781 1.601562-.898438-1.601562-1.5-.796876 1.5-.902343zm19.203124-3.5.597657 1.101562 1.101562.597657-1.101562.5-.597657 1.101562-.601562-1.101562-1-.5 1-.597657zm0 0" fill="#fff"/><path d="m59 10h-54c-1.699219 0-3 1.398438-3 3v40c0 1.601562 1.300781 3 3 3h54c1.699219 0 3-1.398438 3-3v-40c0-1.601562-1.300781-3-3-3zm1 43c0 .601562-.398438 1-1 1h-54c-.601562 0-1-.5-1-1v-40c0-.601562.398438-1 1-1h54c.601562 0 1 .5 1 1zm0 0" fill="#8d6c9f"/><path d="m12 18c.601562 0 1-.398438 1-1v-2c0-.601562-.398438-1-1-1s-1 .398438-1 1v2c0 .601562.398438 1 1 1zm-5 0c.601562 0 1-.398438 1-1v-2c0-.601562-.398438-1-1-1s-1 .398438-1 1v2c0 .601562.398438 1 1 1zm10 0c.601562 0 1-.398438 1-1v-2c0-.601562-.398438-1-1-1s-1 .398438-1 1v2c0 .601562.398438 1 1 1zm5 0c.601562 0 1-.398438 1-1v-2c0-.601562-.398438-1-1-1s-1 .398438-1 1v2c0 .601562.398438 1 1 1zm5 0c.601562 0 1-.398438 1-1v-2c0-.601562-.398438-1-1-1s-1 .398438-1 1v2c0 .601562.398438 1 1 1zm5 0c.601562 0 1-.398438 1-1v-2c0-.601562-.398438-1-1-1s-1 .398438-1 1v2c0 .601562.398438 1 1 1zm5 0c.601562 0 1-.398438 1-1v-2c0-.601562-.398438-1-1-1s-1 .398438-1 1v2c0 .601562.398438 1 1 1zm5 0c.601562 0 1-.398438 1-1v-2c0-.601562-.398438-1-1-1s-1 .398438-1 1v2c0 .601562.398438 1 1 1zm5 0c.601562 0 1-.398438 1-1v-2c0-.601562-.398438-1-1-1s-1 .398438-1 1v2c0 .601562.398438 1 1 1zm10-4c-.601562 0-1 .398438-1 1v2c0 .601562.398438 1 1 1s1-.398438 1-1v-2c0-.601562-.398438-1-1-1zm-5 4c.601562 0 1-.398438 1-1v-2c0-.601562-.398438-1-1-1s-1 .398438-1 1v2c0 .601562.398438 1 1 1zm-40 30c-.601562 0-1 .398438-1 1v2c0 .601562.398438 1 1 1s1-.398438 1-1v-2c0-.601562-.398438-1-1-1zm-5 0c-.601562 0-1 .398438-1 1v2c0 .601562.398438 1 1 1s1-.398438 1-1v-2c0-.601562-.398438-1-1-1zm10 0c-.601562 0-1 .398438-1 1v2c0 .601562.398438 1 1 1s1-.398438 1-1v-2c0-.601562-.398438-1-1-1zm5 0c-.601562 0-1 .398438-1 1v2c0 .601562.398438 1 1 1s1-.398438 1-1v-2c0-.601562-.398438-1-1-1zm5 0c-.601562 0-1 .398438-1 1v2c0 .601562.398438 1 1 1s1-.398438 1-1v-2c0-.601562-.398438-1-1-1zm5 0c-.601562 0-1 .398438-1 1v2c0 .601562.398438 1 1 1s1-.398438 1-1v-2c0-.601562-.398438-1-1-1zm5 0c-.601562 0-1 .398438-1 1v2c0 .601562.398438 1 1 1s1-.398438 1-1v-2c0-.601562-.398438-1-1-1zm5 0c-.601562 0-1 .398438-1 1v2c0 .601562.398438 1 1 1s1-.398438 1-1v-2c0-.601562-.398438-1-1-1zm5 0c-.601562 0-1 .398438-1 1v2c0 .601562.398438 1 1 1s1-.398438 1-1v-2c0-.601562-.398438-1-1-1zm10 0c-.601562 0-1 .398438-1 1v2c0 .601562.398438 1 1 1s1-.398438 1-1v-2c0-.601562-.398438-1-1-1zm-5 0c-.601562 0-1 .398438-1 1v2c0 .601562.398438 1 1 1s1-.398438 1-1v-2c0-.601562-.398438-1-1-1zm5-26c.601562 0 1-.398438 1-1s-.398438-1-1-1h-50c-.601562 0-1 .398438-1 1s.398438 1 1 1h9v22h-9c-.601562 0-1 .398438-1 1s.398438 1 1 1h50c.601562 0 1-.398438 1-1s-.398438-1-1-1h-9v-22zm-11 22h-28v-22h28zm0 0" fill="#8d6c9f"/><path d="m37.417969 35.179688 2.371093 9.835937-8.648437-5.425781-8.648437 5.425781.71875-2.996094.480468-2 1.167969-4.839843-7.71875-6.847657 10.230469-.941406 3.769531-9.367187 3 7.457031.769531 1.910156 1.226563.109375 9 .832031zm0 0" fill="#f9e3ae"/><path d="m37.417969 35.179688 2.371093 9.835937-8.648437-5.425781v-21.566406l3 7.457031.769531 1.910156 1.226563.109375 9 .832031zm0 0" fill="#f6d397"/><path d="m39.789062 45.765625c-.171874.003906-.34375-.042969-.492187-.128906l-8.15625-4.636719-8.15625 4.636719c-.34375.191406-.769531.167969-1.085937-.066407-.320313-.234374-.46875-.632812-.386719-1.019531l1.992187-8.972656-7.019531-6.125c-.300781-.261719-.417969-.675781-.296875-1.058594.121094-.378906.457031-.648437.855469-.6875l9.386719-.929687 3.800781-8.414063c.160156-.359375.515625-.59375.910156-.59375.390625 0 .75.230469.910156.589844l3.800781 8.417969 9.382813.929687c.398437.035157.734375.308594.859375.6875.121094.382813.003906.796875-.300781 1.058594l-7.015625 6.125 1.988281 8.972656c.066406.296875-.003906.605469-.195313.84375-.191406.234375-.476562.375-.78125.371094zm-8.648437-6.917969c.167969 0 .339844.042969.492187.132813l6.695313 3.804687-1.632813-7.355468c-.078124-.355469.042969-.726563.316407-.96875l5.722656-4.992188-7.65625-.757812c-.355469-.035157-.664063-.257813-.8125-.582032l-3.125-6.925781-3.128906 6.925781c-.144531.324219-.457031.546875-.8125.582032l-7.65625.757812 5.722656 4.992188c.273437.238281.398437.613281.316406.96875l-1.628906 7.355468 6.691406-3.804687c.152344-.089844.324219-.132813.496094-.132813zm0 0" fill="#8d6c9f"/></svg>
