<svg viewBox="0 0 64 64" xmlns="http://www.w3.org/2000/svg"><rect fill="#faefde" height="48" rx="2" width="37" x="14" y="5"/><path d="m12 5h7a0 0 0 0 1 0 0v48a0 0 0 0 1 0 0h-10a0 0 0 0 1 0 0v-45a3 3 0 0 1 3-3z" fill="#cda1a7"/><rect fill="#efd8be" height="6" rx="2" width="40" x="9" y="53"/><path d="m51 31h4v12h-4z" fill="#f9e3ae"/><path d="m51 21h4v12h-4z" fill="#97e0bb"/><path d="m51 11h4v12h-4z" fill="#ed7899"/><rect fill="#fff7f0" height="10" rx="4" width="8" x="31" y="19"/><path d="m41 42h-4a1 1 0 0 0 0 2h4a1 1 0 0 0 0-2zm-8 0h-4a1 1 0 0 0 0 2h4a1 1 0 0 0 0-2zm6-2a1 1 0 0 0 0-2h-8a1 1 0 0 0 0 2z" fill="#f75f83"/><g fill="#8d6c9f"><path d="m19 8a1 1 0 0 0 -1 1v4a1 1 0 0 0 2 0v-4a1 1 0 0 0 -1-1zm-4 0h-2a1 1 0 0 0 0 2h2a1 1 0 0 0 0-2zm0 5h-2a1 1 0 0 0 0 2h2a1 1 0 0 0 0-2zm0 5h-2a1 1 0 0 0 0 2h2a1 1 0 0 0 0-2zm0 5h-2a1 1 0 0 0 0 2h2a1 1 0 0 0 0-2zm0 5h-2a1 1 0 0 0 0 2h2a1 1 0 0 0 0-2zm0 5h-2a1 1 0 0 0 0 2h2a1 1 0 0 0 0-2zm0 5h-2a1 1 0 0 0 0 2h2a1 1 0 0 0 0-2zm0 5h-2a1 1 0 0 0 0 2h2a1 1 0 0 0 0-2zm0 5h-2a1 1 0 0 0 0 2h2a1 1 0 0 0 0-2zm24.24-20.38a5 5 0 0 0 .76-2.62v-2a5 5 0 0 0 -10 0v2a5 5 0 0 0 .76 2.62 9 9 0 0 0 -5.46 6.08 1 1 0 1 0 1.93.51 7 7 0 0 1 5.11-5 4.91 4.91 0 0 0 5.31 0 7 7 0 0 1 5.12 5 1 1 0 0 0 1.93-.51 9 9 0 0 0 -5.46-6.08zm-7.36-4.62a3.13 3.13 0 0 1 6.25 0v2a3.13 3.13 0 0 1 -6.25 0z"/><path d="m56 12a2 2 0 0 0 -2-2h-2v-3a3 3 0 0 0 -3-3h-37a4 4 0 0 0 -4 4v48a4 4 0 0 0 4 4h35a3 3 0 0 0 3-3v-3.18a3 3 0 0 0 2-2.82v-6.38l2.89-1.45a2 2 0 0 0 1.11-1.79zm-4 12.62 2-1v7.76l-2 1zm2-12.62v9.38l-2 1v-10.38zm-7 46h-35a2 2 0 0 1 -2-2 2.26 2.26 0 0 1 2-2h36v3a1 1 0 0 1 -1 1zm3-7a1 1 0 0 1 -1 1h-29v-35a1 1 0 0 0 -2 0v35h-6a3.94 3.94 0 0 0 -2 .63v-44.63a2 2 0 0 1 2-2h37a1 1 0 0 1 1 1zm2-8.62v-7.76l2-1v7.76z"/></g></svg>
