<svg viewBox="0 0 64 64" xmlns="http://www.w3.org/2000/svg"><path d="m45.410156 55.828125-12.820312-9.398437c-.351563-.257813-.828125-.257813-1.179688 0l-12.820312 9.398437c-.308594.226563-.714844.257813-1.054688.082031-.335937-.175781-.542968-.53125-.535156-.910156v-47c0-.550781.449219-1 1-1h28c.550781 0 1 .449219 1 1v47c.007812.378906-.199219.734375-.535156.910156-.339844.175782-.746094.144532-1.054688-.082031zm0 0" fill="#ed7899"/><path d="m45.410156 48.828125-11.640625-8.527344c-1.054687-.777343-2.492187-.777343-3.550781 0l-11.628906 8.527344c-.308594.226563-.714844.257813-1.054688.082031-.335937-.175781-.542968-.53125-.535156-.910156v7c0 .378906.210938.722656.546875.894531s.738281.136719 1.042969-.085937l12.820312-9.398438c.351563-.257812.828125-.257812 1.179688 0l12.820312 9.398438c.304688.222656.707032.257812 1.042969.085937s.546875-.515625.546875-.894531v-7c.007812.378906-.199219.734375-.535156.910156-.339844.175782-.746094.144532-1.054688-.082031zm0 0" fill="#e0678f"/><path d="m46 7h-28c-.550781 0-1 .449219-1 1v5c0-.550781.449219-1 1-1h28c.550781 0 1 .449219 1 1v-5c0-.550781-.449219-1-1-1zm0 0" fill="#f283a5"/><path d="m45 6h-26c-1.65625 0-3 1.34375-3 3v46c0 .753906.425781 1.441406 1.097656 1.78125s1.476563.273438 2.082032-.171875l12.21875-9c.351562-.257813.832031-.257813 1.179687 0l12.230469 9c.609375.449219 1.417968.519531 2.09375.179687.671875-.339843 1.097656-1.035156 1.097656-1.789062v-46c0-1.65625-1.34375-3-3-3zm1 49-12.230469-9c-1.054687-.773438-2.492187-.773438-3.550781 0l-12.21875 9v-46c0-.550781.449219-1 1-1h26c.550781 0 1 .449219 1 1zm0 0" fill="#8d6c9f"/><path d="m37 10c-.550781 0-1 .449219-1 1v2c0 .550781.449219 1 1 1s1-.449219 1-1v-2c0-.550781-.449219-1-1-1zm5 0c-.550781 0-1 .449219-1 1v2c0 .550781.449219 1 1 1s1-.449219 1-1v-2c0-.550781-.449219-1-1-1zm-20 0c-.550781 0-1 .449219-1 1v2c0 .550781.449219 1 1 1s1-.449219 1-1v-2c0-.550781-.449219-1-1-1zm5 0c-.550781 0-1 .449219-1 1v2c0 .550781.449219 1 1 1s1-.449219 1-1v-2c0-.550781-.449219-1-1-1zm5 0c-.550781 0-1 .449219-1 1v2c0 .550781.449219 1 1 1s1-.449219 1-1v-2c0-.550781-.449219-1-1-1zm0 0" fill="#8d6c9f"/><path d="m38.535156 33.320312 2.367188 9.835938-8.648438-5.429688-8.648437 5.429688.722656-3 .480469-2 1.167968-4.835938-7.71875-6.851562 10.230469-.9375 3.765625-9.371094 3 7.460938.769532 1.910156 1.230468.109375 9 .828125zm0 0" fill="#f9e3ae"/><path d="m38.535156 33.320312 2.367188 9.835938-8.648438-5.429688v-21.566406l3 7.460938.769532 1.910156 1.230468.109375 9 .828125zm0 0" fill="#f6d397"/><path d="m40.90625 43.90625c-.171875 0-.34375-.042969-.492188-.128906l-8.160156-4.640625-8.15625 4.640625c-.34375.191406-.765625.167968-1.085937-.066406-.316407-.234376-.464844-.632813-.382813-1.019532l1.992188-8.972656-7.019532-6.125c-.304687-.261719-.421874-.675781-.296874-1.058594.121093-.378906.457031-.652344.855468-.6875l9.382813-.929687 3.800781-8.417969c.160156-.359375.519531-.589844.910156-.589844.394532 0 .75.230469.914063.589844l3.800781 8.417969 9.382812.925781c.398438.039062.734376.308594.855469.691406.121094.378906.007813.796875-.296875 1.058594l-7.019531 6.121094 1.992187 8.976562c.066407.296875-.007812.605469-.195312.839844-.191406.238281-.476562.375-.78125.375zm-8.652344-6.917969c.171875 0 .34375.042969.496094.132813l6.691406 3.804687-1.628906-7.355469c-.082031-.355468.042969-.730468.316406-.96875l5.722656-4.992187-7.65625-.757813c-.355468-.035156-.667968-.257812-.8125-.582031l-3.128906-6.925781-3.125 6.925781c-.144531.324219-.457031.546875-.8125.582031l-7.65625.757813 5.722656 4.992187c.273438.238282.394532.609376.316407.96875l-1.632813 7.355469 6.695313-3.808593c.152343-.085938.324219-.128907.492187-.128907zm0 0" fill="#8d6c9f"/></svg>
