<svg viewBox="0 0 64 64" xmlns="http://www.w3.org/2000/svg"><path d="m55 33-24-20-24 20v24h48z" fill="#faefde"/><path d="m31 13-24 20v1.7c0 1.1.9 2 2 2 .5 0 .9-.2 1.3-.5l20.1-16.7c.4-.3.9-.3 1.3 0l20.1 16.7c.8.7 2.1.6 2.8-.3.3-.4.5-.8.5-1.3v-1.6z" fill="#efd8be"/><path d="m7 47h48v10h-48z" fill="#f9dd8f"/><path d="m31.6 13.5 25.7 21.1c.4.3 1.1.3 1.4-.1.1-.2.2-.4.2-.6v-2.9c0-.6-.3-1.2-.7-1.5l-25.9-21.5c-.7-.6-1.8-.6-2.5 0l-26 21.4c-.5.4-.8.9-.8 1.6v2.9c0 .6.5 1 1 1 .2 0 .4-.1.6-.2l25.7-21.1c.4-.4 1-.4 1.3-.1z" fill="#cda1a7"/><path d="m16 50c-.6 0-1 .4-1 1v2c0 .6.4 1 1 1s1-.4 1-1v-2c0-.6-.4-1-1-1zm-5 0c-.6 0-1 .4-1 1v2c0 .6.4 1 1 1s1-.4 1-1v-2c0-.6-.4-1-1-1zm35 0c-.6 0-1 .4-1 1v2c0 .6.4 1 1 1s1-.4 1-1v-2c0-.6-.4-1-1-1zm5 0c-.6 0-1 .4-1 1v2c0 .6.4 1 1 1s1-.4 1-1v-2c0-.6-.4-1-1-1z" fill="#8d6c9f"/><path d="m31 20a4 4 0 1 0 0 8 4 4 0 1 0 0-8z" fill="#bbdef9"/><path d="m31 19c-2.8 0-5 2.2-5 5s2.2 5 5 5 5-2.2 5-5-2.2-5-5-5zm0 8.2c-1.8 0-3.2-1.4-3.2-3.2s1.4-3.2 3.2-3.2 3.2 1.4 3.2 3.2-1.4 3.2-3.2 3.2z" fill="#8d6c9f"/><path d="m25 37h12v20h-12z" fill="#ed7899"/><g fill="#8d6c9f"><path d="m33 45c-.6 0-1 .4-1 1v2c0 .6.4 1 1 1s1-.4 1-1v-2c0-.6-.4-1-1-1z"/><path d="m56.7 35.4c.9.7 2.1.6 2.8-.3.3-.4.5-.8.5-1.3v-2.8c0-.9-.4-1.8-1.1-2.3l-26-21.4c-1.1-.9-2.7-.9-3.8 0l-11.1 9.1v-3.3c0-.6-.4-1-1-1s-1 .4-1 1v5l-2 1.6v-10.6c0-.6-.4-1-1-1s-1 .4-1 1v12 .2l-8.9 7.4c-.7.5-1.1 1.4-1.1 2.3v2.9c0 .8.4 1.5 1.2 1.8.7.3 1.5.2 2.1-.3l.7-.6v21.2h-3c-.6 0-1 .4-1 1s.4 1 1 1h56c.6 0 1-.4 1-1s-.4-1-1-1h-3v-21.2zm-34.7 20.6h-2-12v-8h16v8zm4 0v-18h10v18zm28 0h-12-2-2v-8h16zm0-18v8h-16v-8c0-1.1-.9-2-2-2h-10c-1.1 0-2 .9-2 2v8h-16v-8-4.8l23-18.9 23 18.9zm-21.7-25.2c-.7-.6-1.8-.6-2.5 0l-25.8 21.1v-2.9c0-.3.1-.6.4-.8l26-21.4c.4-.3.9-.3 1.3 0l26 21.4c.2.2.4.5.4.8v2.9z"/><path d="m21 50c-.6 0-1 .4-1 1v2c0 .6.4 1 1 1s1-.4 1-1v-2c0-.6-.4-1-1-1zm20 0c-.6 0-1 .4-1 1v2c0 .6.4 1 1 1s1-.4 1-1v-2c0-.6-.4-1-1-1z"/></g></svg>
