<svg viewBox="0 0 36 36" xmlns="http://www.w3.org/2000/svg"><g fill="none" fill-rule="evenodd"><path d="m34.98.02-33.99.698a1 1 0 0 0 -.979 1l-.01 33.262a1 1 0 0 0 1.02 1l33.988-.696a1 1 0 0 0 .98-1l.01-33.262a1 1 0 0 0 -1.02-1z"/><path d="m26.995 9.003-11.567.04a1 1 0 0 0 -.997.997v.175a1 1 0 0 0 1.003 1.002l11.567-.038a1 1 0 0 0 .997-.998v-.176a1 1 0 0 0 -1.003-1.002zm-16.845.018-.17.004a1 1 0 0 0 -.98 1v.174a1 1 0 0 0 1.021 1l.171-.003a1 1 0 0 0 .979-1v-.174a1 1 0 0 0 -1.02-1zm16.845 8.309-11.567.039a1 1 0 0 0 -.997.998v.175a1 1 0 0 0 1.003 1.002l11.567-.039a1 1 0 0 0 .997-.998v-.175a1 1 0 0 0 -1.003-1.002zm-16.845.018-.17.004a1 1 0 0 0 -.98 1v.174a1 1 0 0 0 1.021 1l.171-.004a1 1 0 0 0 .979-.999v-.175a1 1 0 0 0 -1.02-1zm16.845 8.309-11.567.039a1 1 0 0 0 -.997.997v.176a1 1 0 0 0 1.003 1.002l11.567-.039a1 1 0 0 0 .997-.998v-.175a1 1 0 0 0 -1.003-1.002zm-16.845.018-.17.003a1 1 0 0 0 -.98 1v.175a1 1 0 0 0 1.021 1l.171-.004a1 1 0 0 0 .979-1v-.174a1 1 0 0 0 -1.02-1z" fill="#fff"/></g></svg>