<svg fill="#1a1a1a" viewBox="0 0 128 128" xmlns="http://www.w3.org/2000/svg"><path d="m39 117c1.7 0 3-1.3 3-3v-92.8l10.9 10.9c.6.6 1.4.9 2.1.9s1.5-.3 2.1-.9c1.2-1.2 1.2-3.1 0-4.2l-16-16c-1.2-1.2-3.1-1.2-4.2 0l-16 16c-1.2 1.2-1.2 3.1 0 4.2 1.2 1.2 3.1 1.2 4.2 0l10.9-10.9v92.8c0 1.7 1.3 3 3 3zm50-106c-1.7 0-3 1.3-3 3v92.8l-10.9-10.9c-1.2-1.2-3.1-1.2-4.2 0-1.2 1.2-1.2 3.1 0 4.2l16 16c.6.6 1.4.9 2.1.9s1.5-.3 2.1-.9l16-16c1.2-1.2 1.2-3.1 0-4.2-1.2-1.2-3.1-1.2-4.2 0l-10.9 10.9v-92.8c0-1.7-1.3-3-3-3z"/></svg>