<svg viewBox="0 0 100 100" xmlns="http://www.w3.org/2000/svg"><path d="m71 19h-42v66l21-13.136 21 13.136z" fill="#f15b6c"/><path d="m68 22.5v56.177c0 .393-.432.632-.765.424l-17.235-10.781-17.235 10.781c-.333.209-.765-.031-.765-.424v-56.177c0-.276.224-.5.5-.5h35c.276 0 .5.224.5.5z" fill="#f37e98"/><path d="m50 28a11 11 0 1 0 0 22 11 11 0 1 0 0-22z" fill="#fef6aa"/><path d="m55.77 38.35-2.31 2.35.54 3.31c.06.3-.06.6-.31.79-.13.15-.54.23-.84.08l-2.85-1.56-2.83 1.55c-.11.07-.25.1-.38.1-.17 0-.34-.06-.48-.16-.25-.2-.37-.5-.31-.81l.54-3.3-2.31-2.35c-.2-.21-.28-.53-.2-.81.12-.32.35-.52.64-.57l3.19-.48 1.41-3c.29-.57 1.18-.56 1.45-.01l1.42 3.01 3.17.48c.31.05.54.25.65.54.09.31.01.63-.19.84z" fill="#f9e65c"/><g fill="#1f212b"><path d="m67.5 35c-.276 0-.5-.224-.5-.5v-11.5h-25.5c-.276 0-.5-.224-.5-.5s.224-.5.5-.5h26c.276 0 .5.224.5.5v12c0 .276-.224.5-.5.5zm-35 44.18c-.083 0-.167-.021-.242-.062-.159-.089-.258-.257-.258-.438v-51.18c0-.276.224-.5.5-.5s.5.224.5.5v50.277l3.235-2.021c.234-.147.543-.075.689.159.146.233.075.542-.159.688l-4 2.5c-.081.051-.173.077-.265.077zm35 0c-.092 0-.184-.025-.265-.076l-17.235-10.774-7.235 4.522c-.234.147-.543.076-.689-.159-.146-.233-.075-.542.159-.688l7.5-4.688c.162-.102.368-.102.53 0l16.735 10.46v-30.277c0-.276.224-.5.5-.5s.5.224.5.5v31.18c0 .182-.099.35-.258.438-.075.041-.159.062-.242.062zm0-34.18c-.276 0-.5-.224-.5-.5v-3c0-.276.224-.5.5-.5s.5.224.5.5v3c0 .276-.224.5-.5.5zm0-6c-.276 0-.5-.224-.5-.5v-1c0-.276.224-.5.5-.5s.5.224.5.5v1c0 .276-.224.5-.5.5z"/><path d="m71 86c-.185 0-.369-.051-.53-.152l-20.47-12.805-20.47 12.805c-.308.193-.697.203-1.015.027-.318-.177-.515-.512-.515-.875v-66c0-.553.448-1 1-1h42c.552 0 1 .447 1 1v66c0 .363-.197.698-.516.875-.151.083-.317.125-.484.125zm-21-15.137c.184 0 .368.051.53.152l19.47 12.18v-63.195h-40v63.195l19.47-12.18c.162-.101.346-.152.53-.152z"/><path d="m50 50c-6.065 0-11-4.935-11-11 0-2.003.543-3.963 1.572-5.669.142-.238.449-.312.687-.171.236.143.312.45.17.687-.935 1.55-1.429 3.333-1.429 5.153 0 5.514 4.486 10 10 10s10-4.486 10-10-4.486-10-10-10c-2.271 0-4.412.742-6.19 2.146-.215.171-.531.134-.702-.083s-.134-.531.083-.702c1.955-1.545 4.31-2.361 6.809-2.361 6.065 0 11 4.935 11 11s-4.935 11-11 11z"/><path d="m46.792 44.967c-.171 0-.342-.053-.48-.157-.25-.195-.367-.503-.312-.808l.541-3.304-2.308-2.349c-.207-.207-.286-.527-.199-.814.113-.314.344-.512.64-.566l3.184-.48 1.415-3.002c.282-.566 1.177-.556 1.449-.011l1.419 3.013 3.167.478c.313.058.544.255.649.544.095.312.016.633-.194.843l-2.305 2.346.542 3.312c.054.297-.063.604-.308.795-.137.146-.544.225-.846.077l-3.088-1.693c-.242-.133-.331-.437-.198-.679.132-.242.436-.332.679-.198l2.713 1.488-.522-3.19c-.025-.157.025-.317.137-.432l2.237-2.277-3.077-.463c-.165-.024-.307-.13-.378-.281l-1.349-2.87-1.351 2.867c-.071.151-.213.257-.378.281l-3.077.464 2.237 2.276c.112.114.163.274.137.432l-.545 3.332c.142.026.271.113.347.25.133.241.045.546-.196.679-.118.066-.25.097-.382.097zm6.223-.792v.005zm-6.029-.008v.005c0-.002 0-.003 0-.005zm-.295-.173s0 .001 0 0zm8.363-6.346c-.001.001-.002.002-.003.003zm-10.111-.002.003.003c0-.002-.002-.003-.003-.003z"/></g></svg>