<svg viewBox="0 0 64 64" xmlns="http://www.w3.org/2000/svg"><path d="m27 35a14 14 0 1 0 0 28 14 14 0 1 0 0-28z" fill="#f6d397"/><path d="m40.93 15.14a19.93 19.93 0 1 0 0 39.86 19.93 19.93 0 1 0 0-39.86z" fill="#ffefca"/><path d="m25 6.14a18.86 18.86 0 1 0 0 37.72 18.86 18.86 0 1 0 0-37.72z" fill="#f9e3ae"/><path d="m9.33 43.25a24 24 0 0 0 7.87 5l29.23-29.25v-5.51a24.08 24.08 0 0 0 -3.18-4.17zm-1.68-1.76 33.64-33.63h-5.15l-30.67 30.67a24.07 24.07 0 0 0 2.18 2.96zm-2.54-6.03 28.46-28.46-2.57-1.71-27.12 27.11a23.84 23.84 0 0 0 1.23 3.06z" fill="#ffefca"/><path d="m25 1a24 24 0 1 0 24 24 24 24 0 0 0 -24-24zm0 42.86a18.86 18.86 0 1 1 13-32.51l.58.58q.33.35.65.71a18.86 18.86 0 0 1 -14.23 31.22z" fill="#f6d397"/><path d="m13.28 20.28 1.07 1.94 1.94 1.06-1.94 1.06-1.07 1.95-1.06-1.95-1.94-1.06 1.94-1.06zm22.31 8.75.5.92.91.5-.91.49-.5.92-.5-.92-.92-.49.92-.5z" fill="#fff8f8"/><g fill="#8d6c9f"><path d="m30.1 59.51a1 1 0 0 0 .31 0 11 11 0 0 0 2.78-1.36 1 1 0 1 0 -1.12-1.65 9.06 9.06 0 0 1 -2.28 1.12 1 1 0 0 0 .31 2zm-4.36-1.6a9 9 0 0 1 -6.58-4.49 1 1 0 1 0 -1.74 1 11 11 0 0 0 8 5.49h.14a1 1 0 0 0 .14-2z"/><path d="m48 15.24a25 25 0 1 0 -35.78 31.24 15 15 0 0 0 28 9.5l.78.02a21 21 0 0 0 7-40.76zm-46 9.76a23 23 0 1 1 23 23 23 23 0 0 1 -23-23zm19.18 35.62a12.89 12.89 0 0 1 -7.06-13.12 24.85 24.85 0 0 0 10.88 2.5q.66 0 1.32 0a20.94 20.94 0 0 0 11.75 5.82 13 13 0 0 1 -16.89 4.8zm19.82-6.62a18.86 18.86 0 0 1 -12-4.32 25 25 0 0 0 19.93-31.92 19 19 0 0 1 -7.93 36.24z"/><path d="m45 25a20 20 0 0 0 -6.6-14.85 1 1 0 0 0 -1.34 1.48 17.94 17.94 0 1 1 -9.06-4.38 1 1 0 0 0 .33-2 20 20 0 1 0 16.67 19.75z"/><path d="m31.6 8.25a18 18 0 0 1 2.4 1.16 1 1 0 0 0 1-1.73 20 20 0 0 0 -2.67-1.29 1 1 0 1 0 -.73 1.86zm-19.4 19.75a1 1 0 0 0 -1.95.45 15.2 15.2 0 0 0 7.12 9.66 1 1 0 0 0 .5.14 1 1 0 0 0 .51-1.86 13.2 13.2 0 0 1 -6.18-8.39zm11.8-11h2a2 2 0 0 1 2 2 1 1 0 0 0 2 0 4 4 0 0 0 -4-4v-2a1 1 0 0 0 -2 0v2a4 4 0 0 0 -4 4v3a4 4 0 0 0 4 4h2a2 2 0 0 1 2 2v3a2 2 0 0 1 -2 2v-5a1 1 0 0 0 -2 0v5a2 2 0 0 1 -2-2 1 1 0 0 0 -2 0 4 4 0 0 0 4 4v2a1 1 0 0 0 2 0v-2a4 4 0 0 0 4-4v-3a4 4 0 0 0 -4-4v-5a1 1 0 0 0 -2 0v5a2 2 0 0 1 -2-2v-3a2 2 0 0 1 2-2zm31 17h-2a1 1 0 0 0 0 2h2a1 1 0 0 0 0-2zm-14 12a1 1 0 0 0 -1 1v2a1 1 0 0 0 2 0v-2a1 1 0 0 0 -1-1zm9.19-3.22a1 1 0 0 0 -1.41 1.41l1.41 1.41a1 1 0 0 0 1.41-1.41zm1.94-11.27a1 1 0 0 0 .38-.07l1.85-.75a1 1 0 0 0 -.75-1.85l-1.85.75a1 1 0 0 0 .38 1.93zm-5.71 14.24a1 1 0 1 0 -1.85.75l.75 1.85a1 1 0 1 0 1.85-.75zm7.86-6.2-1.84-.78a1 1 0 1 0 -.78 1.84l1.84.78a1 1 0 1 0 .78-1.84z"/></g><path d="m35.42 15 .85 1.56 1.57.86-1.57.85-.85 1.57-.86-1.57-1.56-.85 1.56-.86z" fill="#fff8f8"/></svg>