<svg viewBox="0 0 64 64" xmlns="http://www.w3.org/2000/svg"><path d="m32 4a28 28 0 1 0 0 56 28 28 0 1 0 0-56z" fill="#efc88e"/><path d="m32 9a23 23 0 1 0 0 46 23 23 0 1 0 0-46z" fill="#f9dd8f"/><path d="m47.828 15.322c-.885-.84-1.834-1.613-2.844-2.305l-31.968 31.967c.691 1.008 1.462 1.956 2.301 2.84zm-37.438 24.569c.374 1.023.82 2.011 1.329 2.961l31.133-31.133c-.947-.508-1.933-.954-2.954-1.327zm43.643-14.494c-.927-3.097-2.489-5.918-4.535-8.315l-32.416 32.416c2.397 2.046 5.218 3.608 8.315 4.535z" fill="#ffeec9"/><g fill="#8d6c9f"><path d="m32 61c-15.991 0-29-13.01-29-29s13.009-29 29-29 29 13.01 29 29-13.009 29-29 29zm0-56c-14.888 0-27 12.112-27 27s12.112 27 27 27 27-12.112 27-27-12.112-27-27-27z"/><path d="m13.906 47.199c-.296 0-.589-.131-.787-.382-3.349-4.261-5.119-9.385-5.119-14.817 0-13.233 10.767-24 24-24s24 10.767 24 24c0 5.326-1.709 10.372-4.942 14.59-.336.438-.963.521-1.402.186-.438-.336-.521-.964-.185-1.402 2.963-3.867 4.529-8.491 4.529-13.374 0-12.131-9.869-22-22-22s-22 9.869-22 22c0 4.979 1.622 9.676 4.691 13.581.341.435.266 1.063-.168 1.404-.183.145-.401.214-.617.214zm1.985 3.59c-.239 0-.479-.086-.671-.259-.409-.371-.44-1.003-.07-1.412l1.343-1.482c.37-.411 1.002-.44 1.413-.07.409.371.44 1.003.07 1.412l-1.343 1.482c-.197.219-.469.329-.742.329zm4.102 2.991c-.17 0-.342-.043-.5-.135-.478-.276-.641-.889-.364-1.366l1.002-1.73c.276-.478.888-.643 1.366-.364.478.276.641.889.364 1.366l-1.002 1.73c-.185.321-.521.499-.866.499zm4.642 2.06c-.102 0-.205-.016-.307-.048-.525-.17-.814-.733-.645-1.259l.613-1.904c.169-.525.732-.811 1.258-.646.525.17.814.733.645 1.259l-.613 1.904c-.135.424-.528.694-.951.694zm4.972 1.033c-.033 0-.066-.002-.1-.005-.55-.055-.951-.544-.896-1.094l.197-1.99c.055-.549.535-.941 1.094-.896.55.055.951.544.896 1.094l-.197 1.99c-.051.515-.486.901-.994.901zm5.072-.025c-.502 0-.936-.378-.992-.89l-.221-1.988c-.061-.549.334-1.043.883-1.104.539-.055 1.043.334 1.104.884l.221 1.988c.061.549-.334 1.043-.883 1.104-.037.004-.075.006-.112.006zm4.959-1.099c-.418 0-.808-.264-.948-.682l-.637-1.896c-.176-.523.106-1.091.63-1.267.524-.175 1.091.106 1.267.63l.637 1.896c.176.523-.106 1.091-.63 1.267-.106.035-.213.052-.319.052zm4.616-2.116c-.341 0-.673-.174-.86-.488l-1.023-1.719c-.282-.475-.126-1.089.348-1.371.474-.283 1.088-.127 1.371.348l1.023 1.719c.282.475.126 1.089-.348 1.371-.161.095-.337.14-.511.14z"/><path d="m48.321 50.596c-.269 0-.536-.107-.733-.32l-1.36-1.467c-.375-.404-.352-1.037.053-1.413.406-.375 1.037-.353 1.414.054l1.36 1.467c.375.404.352 1.037-.053 1.413-.193.178-.437.266-.681.266z"/><path d="m30 23h4c1.654 0 3 1.346 3 3 0 .552.447 1 1 1s1-.448 1-1c0-2.757-2.243-5-5-5h-1v-3c0-.552-.447-1-1-1s-1 .448-1 1v3h-1c-2.757 0-5 2.243-5 5v2c0 2.757 2.243 5 5 5h4c1.654 0 3 1.346 3 3v2c0 1.654-1.346 3-3 3h-1v-6c0-.552-.447-1-1-1s-1 .448-1 1v6h-1c-1.654 0-3-1.346-3-3 0-.552-.447-1-1-1s-1 .448-1 1c0 2.757 2.243 5 5 5h1v3c0 .552.447 1 1 1s1-.448 1-1v-3h1c2.757 0 5-2.243 5-5v-2c0-2.757-2.243-5-5-5h-1v-6c0-.552-.447-1-1-1s-1 .448-1 1v6h-1c-1.654 0-3-1.346-3-3v-2c0-1.654 1.346-3 3-3z"/></g><path d="m15.284 25.282 1.061 1.941 1.941 1.061-1.941 1.061-1.061 1.941-1.061-1.941-1.941-1.061 1.941-1.061z" fill="#fff7f7"/><path d="m43.587 42.032.5.913.913.5-.913.499-.5.913-.499-.913-.913-.499.913-.5z" fill="#fff7f7"/><path d="m45.419 19 .855 1.564 1.564.855-1.564.855-.855 1.564-.855-1.564-1.564-.855 1.564-.855z" fill="#fff7f7"/></svg>