<svg viewBox="0 0 100 100" xmlns="http://www.w3.org/2000/svg"><path d="m71 19h-42v66l21-13.136719 21 13.136719zm0 0" fill="#ccc"/><path d="m68 22.5v56.175781c0 .394531-.433594.632813-.765625.425781l-17.234375-10.78125-17.234375 10.78125c-.332031.207032-.765625-.03125-.765625-.425781v-56.175781c0-.277344.222656-.5.5-.5h35c.277344 0 .5.222656.5.5zm0 0" fill="#ccc"/><path d="m50 28c-6.074219 0-11 4.925781-11 11s4.925781 11 11 11 11-4.925781 11-11-4.925781-11-11-11zm0 0" fill="#ccc"/><path d="m55.769531 38.351562-2.308593 2.347657.539062 3.3125c.058594.296875-.058594.597656-.308594.789062-.132812.148438-.542968.230469-.839844.078125l-2.851562-1.558594-2.828125 1.550782c-.113281.070312-.25.097656-.382813.097656-.167968 0-.339843-.058594-.480468-.160156-.25-.199219-.367188-.5-.308594-.808594l.539062-3.300781-2.308593-2.347657c-.199219-.210937-.28125-.53125-.199219-.8125.117188-.320312.347656-.519531.640625-.570312l3.1875-.480469 1.410156-3c.289063-.566406 1.179688-.558593 1.449219-.007812l1.421875 3.007812 3.167969.480469c.3125.050781.542968.25.652344.542969.089843.308593.007812.628906-.191407.839843zm0 0" fill="#666"/><g fill="#333"><path d="m67.5 35c-.277344 0-.5-.222656-.5-.5v-11.5h-25.5c-.277344 0-.5-.222656-.5-.5s.222656-.5.5-.5h26c.277344 0 .5.222656.5.5v12c0 .277344-.222656.5-.5.5zm-35 44.179688c-.082031 0-.167969-.019532-.242188-.0625-.160156-.089844-.257812-.257813-.257812-.4375v-51.179688c0-.277344.222656-.5.5-.5s.5.222656.5.5v50.277344l3.234375-2.019532c.234375-.148437.542969-.078124.691406.15625.144531.234376.074219.542969-.160156.6875l-4 2.5c-.082031.050782-.171875.078126-.265625.078126zm35 0c-.09375 0-.183594-.023438-.265625-.074219l-17.234375-10.777344-7.234375 4.523437c-.234375.148438-.542969.078126-.691406-.160156-.144531-.230468-.074219-.539062.160156-.6875l7.5-4.6875c.164063-.101562.367187-.101562.53125 0l16.734375 10.460938v-30.277344c0-.277344.222656-.5.5-.5s.5.222656.5.5v31.179688c0 .183593-.097656.351562-.257812.4375-.074219.042968-.160157.0625-.242188.0625zm0-34.179688c-.277344 0-.5-.222656-.5-.5v-3c0-.277344.222656-.5.5-.5s.5.222656.5.5v3c0 .277344-.222656.5-.5.5zm0-6c-.277344 0-.5-.222656-.5-.5v-1c0-.277344.222656-.5.5-.5s.5.222656.5.5v1c0 .277344-.222656.5-.5.5zm0 0"/><path d="m71 86c-.183594 0-.367188-.050781-.53125-.152344l-20.46875-12.804687-20.46875 12.804687c-.308594.191406-.699219.203125-1.015625.027344-.320313-.175781-.515625-.511719-.515625-.875v-66c0-.554688.449219-1 1-1h42c.550781 0 1 .445312 1 1v66c0 .363281-.195312.699219-.515625.875-.152344.082031-.316406.125-.484375.125zm-21-15.136719c.183594 0 .367188.050781.53125.152344l19.46875 12.179687v-63.195312h-40v63.195312l19.46875-12.179687c.164062-.101563.347656-.152344.53125-.152344zm0 0"/><path d="m50 50c-6.066406 0-11-4.933594-11-11 0-2.003906.542969-3.964844 1.570312-5.667969.144532-.238281.449219-.3125.6875-.171875.238282.144532.3125.449219.171876.6875-.9375 1.550782-1.429688 3.332032-1.429688 5.152344 0 5.515625 4.484375 10 10 10s10-4.484375 10-10-4.484375-10-10-10c-2.269531 0-4.410156.742188-6.191406 2.144531-.214844.171875-.53125.136719-.699219-.082031-.171875-.214844-.136719-.53125.082031-.703125 1.953125-1.542969 4.308594-2.359375 6.808594-2.359375 6.066406 0 11 4.933594 11 11s-4.933594 11-11 11zm0 0"/><path d="m46.792969 44.96875c-.171875 0-.34375-.054688-.480469-.160156-.25-.195313-.367188-.5-.3125-.804688l.539062-3.304687-2.304687-2.351563c-.207031-.207031-.289063-.527344-.199219-.8125.113282-.3125.34375-.511718.640625-.566406l3.183594-.480469 1.414063-3c.28125-.566406 1.175781-.558593 1.449218-.011719l1.417969 3.011719 3.167969.480469c.3125.054688.542968.253906.648437.542969.09375.3125.015625.632812-.195312.84375l-2.304688 2.34375.542969 3.3125c.054688.296875-.0625.605469-.308594.796875-.136718.144531-.542968.222656-.84375.074218l-3.089844-1.691406c-.242187-.132812-.332031-.4375-.199218-.679687.132812-.242188.4375-.332031.679687-.199219l2.714844 1.488281-.523437-3.1875c-.023438-.160156.023437-.316406.136718-.433593l2.238282-2.277344-3.078126-.460938c-.164062-.027344-.304687-.132812-.378906-.28125l-1.347656-2.871094-1.351562 2.867188c-.070313.152344-.210938.257812-.378907.28125l-3.074219.464844 2.234376 2.273437c.113281.113281.164062.273438.136718.433594l-.542968 3.332031c.140624.027344.269531.113282.347656.25.132812.242188.042968.546875-.195313.679688-.121093.066406-.25.097656-.382812.097656zm6.222656-.792969v.003907zm-6.03125-.007812v.003906zm-.292969-.175781s0 .003906 0 0zm8.363282-6.34375s-.003907 0-.003907.003906zm-10.113282-.003907.003906.003907s0-.003907-.003906-.003907zm0 0"/></g></svg>