<svg fill="#fff" viewBox="0 0 26 26" xmlns="http://www.w3.org/2000/svg"><path d="m16 0c-2.210937 0-4.121094.917969-5.3125 2.40625s-1.6875 3.417969-1.6875 5.5v1.09375h3v-1.09375c0-1.578125.390625-2.820312 1.03125-3.625.640625-.804687 1.511719-1.28125 2.96875-1.28125 1.460938 0 2.328125.449219 2.96875 1.25s1.03125 2.058594 1.03125 3.65625v1.09375h3v-1.09375c0-2.09375-.527344-4.042969-1.71875-5.53125s-3.074219-2.375-5.28125-2.375zm-7 10c-1.65625 0-3 1.34375-3 3v10c0 1.65625 1.34375 3 3 3h14c1.65625 0 3-1.34375 3-3v-10c0-1.65625-1.34375-3-3-3zm7 5c1.105469 0 2 .894531 2 2 0 .738281-.402344 1.371094-1 1.71875v2.28125c0 .550781-.449219 1-1 1s-1-.449219-1-1v-2.28125c-.597656-.347656-1-.980469-1-1.71875 0-1.105469.894531-2 2-2z"/></svg>