<svg viewBox="0 0 592.8 171.19" xmlns="http://www.w3.org/2000/svg"><g fill="#d19a69"><path d="m422.08 171.19a189.27 189.27 0 0 0 -22.19-11c-2.56-1.1-4.56-.08-6.64.67-8.35 3-17 4.06-25.78 4.49-3.22.16-4.66-1.1-4.36-4.31a14.81 14.81 0 0 0 0-1.49c0-10.11.58-10.81 10.59-11.55-1.33-2.32-3.74-2.63-5.61-3.58-6.36-3.19-6.38-3.14-3.29-9.31 2-4 4-8 5.93-12 1.26-2.67 1.45-4.9-2.67-4.54-3.07.27-4.05-1.29-4-4.18.33-14.17-1.61-11.44 11.39-11.83 18.76-.55 37.47 1.73 56.24 1 3-.12 4.5.29 3.69 4.2-2 9.58-4.47 18.93-9.57 27.38-1.3 2.16-.91 3.3 1.24 4.18.16.07.32.11.47.19 9.28 5.13 9.4 5.19 5 14.84-2.59 5.72-5.62 11.23-8.46 16.84zm-34.42-51.53c6.58 3.3 13.18 6.58 19.75 9.93a2.81 2.81 0 0 0 4.15-1.34c1.3-2.58 3.36-4.91 3.24-8 0-.23-1.11-.64-1.68-.6-8.41.61-16.73-1.48-25.46.01z"/><path d="m592.8 119.49c-1.4 1.73-1 3.79-1 5.73-.05 5.13 0 10.27 0 15.4 0 6.7 0 6.71-6.52 6.72-20.13 0-40.27.59-60.37-.09s-40.19-.9-60.29-.76c-3.84 0-4.8-1.44-4.7-5 .2-7.78-.23-15.58.06-23.35.42-11.27-1.34-22.43-1.16-33.69.07-4.22 1.33-6 5.74-5.85 12.67.3 11.49-1.51 11.47 11.43 0 11.76.1 23.52-.11 35.28-.07 3.88 1.18 5.33 5.13 5.16 5.81-.25 11.65-.24 17.46 0 24.07.92 48.15 1 72.24 1.06 4.89 0 6.24-1.57 6.13-6.26-.3-13.08 0-26.17-.26-39.25-.07-4 1.16-5.88 5.37-5.38 3.58.42 7.33-.77 10.78 1.09z"/><path d="m117.71 72.06a49.91 49.91 0 0 0 -11.86-1.15c-2.72 0-4.28.89-5.1 3.59-2.61 8.6-7.13 16.34-11.72 24-1.39 2.33-1.4 3.73.85 5.39 6 4.42 11.79 9.1 17.81 13.48 2.65 1.93 3.24 3.64 1.34 6.56-6.37 9.84-12.55 19.8-18.73 29.75-1.43 2.3-2.88 2.29-4.84.76-8.34-6.52-16.89-12.8-25-19.62-2.57-2.17-4.17-1.86-6.42-.3-9.33 6.49-19.75 10.64-30.51 14.05-6.72 2.13-7.23 1.91-8.59-4.65-.68-3.23-2.19-6.77-1.43-9.68.9-3.48 5.58-2.5 8.45-3.88 5.22-2.51 10.57-4.76 15.89-7.07 3-1.31 4.72-2.4.92-5.25-8.34-6.24-16.3-13-24.62-19.24-3.93-3-5-5.79-2.77-10.51 3.16-6.71 5.44-13.83 8.21-20.72.9-2.24.41-3-2-3.81-3.79-1.23-7.59-.5-11.36-.85-6.23-.6-6.82-1.45-5.85-7.75a49.27 49.27 0 0 0 .3-8.42c-.05-2.82 1.49-3.66 3.79-3 6 1.85 12.24.18 18.25 1.88 3.24.91 5.58-.57 6.85-4 3.14-8.53 6.76-16.89 9.81-25.45 1.14-3.2 2.49-3.25 5.11-2 9.52 4.63 19 9.29 28.7 13.63 3.27 1.52 3.74 3.2 2.36 6.2-1.71 3.76-3.1 7.66-4.69 11.47-.93 2.21-.44 3.1 2.12 3.6 7.15 1.38 14.44 1.23 21.64 2.36 8.46 1.34 17.09 1.65 25.66 2.28 2.22.17 3.5.95 3.33 3.28-.32 4.27-.6 8.55-1.09 12.8-.3 2.63-2.6 1.98-4.81 2.27zm-49.41-4.34c-5.4-.02-10.63 5.28-10.3 10.47a3.31 3.31 0 0 0 1.46 2.45c3.74 3 7.59 5.8 11.18 9 2 1.74 3.16 1.19 4.33-.64a140.18 140.18 0 0 0 8.82-16.54c1.1-2.34.26-3.66-2.18-3.5-4.53.26-8.84-1.25-13.31-1.24z"/><path d="m240.28 155.24c-4.82 0-9.65-.11-14.46 0-3.17.1-4.55-1.09-4.43-4.33.15-4.3-.13-8.61.05-12.91.15-3.53-1.44-4.53-4.75-4.61-5.79-.13-11.56-.76-17.35-1-2.69-.12-3.89-1.15-3.89-3.9q0-37.25 0-74.5c0-2.74 1.22-3.7 3.88-3.93 12-1.05 12.17-1 12.25 11 0 5.63.13 11.27 0 16.89-.09 3.62 2.08 4 4.84 3.93s5.16 0 5-3.77c-.11-2 0-4 0-6s-.63-3.35-2.77-3.29c-3.73.1-4.37-2.09-4.23-5.13.12-2.65.15-5.3 0-7.95-.13-3.29.17-5.91 4.54-5.91 2.57 0 2.42-2.28 2.43-4.1 0-4.8.12-9.61 0-14.41-.08-3 1.18-4.18 4.12-4.16q15 .07 29.92 0c3 0 4.19 1.2 4.1 4.17-.13 4.3.17 8.62 0 12.91-.16 3.45 1.14 4.79 4.59 4.69 5.32-.14 10.65.17 16-.05 4.08-.18 5.4 1.32 5.51 5.42.5 17.87-1.66 35.68-1.14 53.55.2 6.94-.12 13.9 0 20.85.07 3.39-1.14 4.83-4.61 4.74-5.32-.14-10.64.07-16 0-3.13-.06-4.56 1.12-4.45 4.37.14 4.3-.2 8.62 0 12.91.21 3.57-1.27 4.68-4.64 4.57-4.81-.17-9.64 0-14.46 0zm19.11-46.76c.76 2-1.55 5.25 2.08 6.6 4.29 1.6 6.66-.29 6.83-5.11.43-12.7-1.05-25.44.82-38.12.23-1.53.45-4-1.9-3.72-2.56.34-6.38-.63-7.37 2.52-.89 2.86-.41 6.23-.14 9.33.19 2.21 2.52 1.69 4 2.24.84.31 1.55.81 1.56 1.72q.06 7.19 0 14.37c0 .84-.48 1.8-1.38 1.85-5.89.32-4.29 4.63-4.5 8.32zm-47.88-1.28a17 17 0 0 1 0 1.79c-.44 3.69.81 5.38 4.9 5.38s5.36-1.63 5-5.34a12.29 12.29 0 0 1 0-3c.64-4.47-1.44-5.61-5.69-5.55-5.78.11-3.79 4.14-4.21 6.72z"/><path d="m570.91 88.64q0 14.16 0 28.32c0 7.52 0 8-7.72 7.41-14.27-1.14-28.59-.14-42.8-1.14-10.81-.76-21.56-.65-32.34-.71-3.93 0-5.24-1.37-5.22-5.2q.18-30.31 0-60.63c0-3.59 1.07-5 4.83-4.93q14.22.29 28.44 0c3.71-.07 4.63 1.32 5 4.88a126.74 126.74 0 0 1 .8 18.77c-.15 3.32 1.24 4.28 4.39 4.33 3.47.06 4.82-1.18 4.57-4.65-.2-2.73.17-5.5-3.89-5.39a1.82 1.82 0 0 1 -2-1.84c-.07-4.3-.13-8.61 0-12.91.06-2 1.79-2.12 3.33-2.12h38.93c3.4 0 3.65 2 3.64 4.55.02 10.38.04 20.82.04 31.26zm-40.11 13.56c.09-3.53.76-6.74-4.37-6.67-4 .06-4.38 2-4.57 5.23-.24 4.28 1.15 6.58 5.62 6.68s2.96-3.34 3.32-5.24zm16.15-.63c.43 2.22-1.4 5.85 3.71 6 4.84.13 4.19-3 4.12-5.9s1-6.12-3.95-6.09c-4.52.01-3.83 2.93-3.83 5.99zm0-27.37c-.53 3.55.23 6.1 4.81 5.48 5-.69 2.74-4.48 2.83-6.94.15-4-3.26-2.7-5.45-2.83-3.48-.21-3.14 1.91-2.14 4.29z"/><path d="m143.44 134.24c0-5.46-.07-10.92 0-16.39.05-2.41-.51-3.8-3.3-3.5s-3.59-1.32-3.69-3.94c-.19-4.43-2.35-9.58-.73-13.08 1.79-3.88 8-2.31 12.13-3.59 11.92-3.69 18.64-11.85 21.82-23.52.83-3-.55-3.64-2.9-3.55-9.12.35-18.16-.67-27.22-1.41-3.74-.26-5.55-1.26-5.11-5.26.2-2 0-4 0-6 0-7.53.12-8.08 7.39-7.13 13.43 1.76 26.87.6 40.3.86 4.14.08 5.23 1.49 5.46 5.48.87 15.17-1.8 29.28-11.16 41.67-2.39 3.18-2.33 4.91 2.32 4.5 2.35-.21 4 .76 3.71 3.38-.59 4.78 2.67 6.23 6.19 7.64 6.36 2.55 6.4 2.71 3.6 8.9-1.23 2.71-2.46 5.43-3.66 8.16-.48 1.09-1 2.43-2.43 1.87-4.31-1.69-3.71 1.26-3.7 3.71 0 5.79-.1 11.59.07 17.38.1 3.29-.9 4.86-4.48 4.81-10.14-.15-20.29-.11-30.43 0-3 0-4.2-1.15-4.14-4.12.12-5.63 0-11.26 0-16.89z"/><path d="m358.08 25.28c0-7 .09-13.92-.05-20.87-.03-3.18 1.12-4.41 4.36-4.36 9.81.13 19.62.1 29.44 0 2.72 0 4 .72 4.67 3.7.92 4 .7 7.89.62 11.83-.08 3.56 1.47 5.08 4.8 4.12s6.58-.7 9.88-.7c5.71 0 8.77 5.41 6.1 10.65-.9 1.74-2.48 1.41-3.9 1.44-4.66.07-9.32 0-14 .06-1 0-2.27.08-2.27 1.35s1.27 1.35 2.27 1.35h19c2.12 0 3-1.07 3-3.08 0-3.48-.13-7 .08-10.43.23-3.78-1.7-4.85-4.89-4-4.44 1.23-8.92.54-13.38.74-2.48.11-3.73-1-3.66-3.5.09-3.63-.89-7.73.48-10.78 1.68-3.73 6.29-1.07 9.51-1.83 7.55-1.78 15.23-.56 22.84-.92 2.82-.14 4.1.79 4.3 3.9.88 13.54.93 27.09 1 40.65 0 4.1-1.28 5.73-5.42 5.38-3.14-.26-6.32 0-9.48-.08-19.77-.44-39.49 1.6-59.26 1.1-4.45-.11-6.27-1.24-6-5.88.32-6.61.08-13.25.08-19.87z"/><path d="m404.66 53.81c9.85.53 21.49-.8 33.09.91 3.07.45 4.44 1.24 4.41 4.44-.11 12.09-.17 24.18 0 36.27.05 3.83-1.94 4.42-5 4.22-13.09-.85-26.2-1.09-39.31-1-13.31.11-26.62-.18-39.92.1-4.69.09-6.1-1.53-5.81-6 .7-10.91-.61-21.79-1-32.68-.16-4.15 1.4-5.48 5.48-5.34 11.88.42 10.8-1.8 10.64 10.5-.07 4.84 1.22 9.5 1.08 14.3-.09 3.25 2.28 3.07 4.49 3.11s4.7-.18 4.3-3.27c-.68-5.22 2-6.28 6.39-5.76a22.46 22.46 0 0 0 4.49 0c3.6-.31 5.84.62 5.27 4.87-.37 2.83.83 4.17 4 4.18s4.26-1.53 3.91-4.26c-.56-4.33 1.85-5.06 5.35-4.8a28 28 0 0 0 4.49 0c4-.34 6.85.33 6.3 5.47s4.09 3.51 6.43 4c3.26.67 2.3-2.53 2.32-4.2.16-11.19.11-8.88-8.54-9-14-.15-27.94-.17-41.91 0-4.06.06-5.58-1.15-5.51-5.32.23-13.09-.75-10.55 10.46-10.77 7.38-.09 14.87.03 24.1.03z"/><path d="m526.42 44c-15.95 0-31.91-.13-47.86.08-4.32.06-5.81-1.21-5.72-5.63.26-13.14-1-11.81 11.41-11.43 30.21.91 60.43 1 90.64.86 4 0 5.17 1.43 5.09 5.21-.27 13.5 1.08 10.76-10.67 10.89-14.3.16-28.59 0-42.89 0z"/><path d="m303.22 48.33c-1.05-12.33 9.23-23.33 23.7-23.07 12.23.2 21.18 8.6 22.42 22.08 1.3 14-11.9 24.41-22.34 24.77-12.43.42-25.27-11.51-23.78-23.78z"/><path d="m162.64 8.09c8.45 0 16.32 8.61 15.87 17.93-.38 8-7 18-15.8 18.07-8.19.06-16.6-9.71-16.33-18.52.29-9.74 7.35-17.5 16.26-17.48z"/><path d="m313 142.25c-1.65-2.21-3.15-4.41-4.83-6.46-4.85-5.88-4.93-5.91.47-11.16 9.27-9 18.64-17.91 27.87-27 1.94-1.91 3.21-2 5.32-.11 9.39 8.66 9.51 8.66.3 17.61-8.32 8.09-16.78 16-25.2 24-.8.81-1.75 1.43-3.93 3.12z"/><path d="m327.34 89c0 9.65-6.18 15.7-15.9 15.62-8.2-.08-15.16-7.29-15.24-15.81-.08-8.69 7.58-16.34 16.26-15.77 9.54.64 15.85 8.8 14.88 15.96z"/></g></svg>