<svg xmlns="http://www.w3.org/2000/svg" viewBox="0 0 748.47 161.53"><defs><style>.cls-1{fill:#b5a8d1;}</style></defs><g id="圖層_2" data-name="圖層 2"><g id="圖層_9" data-name="圖層 9"><path class="cls-1" d="M30.62,41.3q.49-6.69-8.48-6.68H14.9q-6.49,0-6-6.78l.37-5q.5-6.87,7-6.87H64.44q6.5,0,6,6.41-.41,5.6-6,26.19L35.57,153.84q-1.74,6.22-7.42,6.23h-23a5.17,5.17,0,0,1-4.35-1.83A4.12,4.12,0,0,1,0,155.49a10.62,10.62,0,0,1,.43-2.11L30,44.6a15.92,15.92,0,0,0,.6-3.3ZM79.28,7.14c.34-4.63,2.7-7,7.1-7L112.86,0q7.5-.09,7,7.14L109,154.67q-.5,6.86-7,6.86H74.47q-6.5,0-6-6.86L79.28,7.14Zm78.47,40.11a19.21,19.21,0,0,0,.31,3.21l15.27,102.92a9.05,9.05,0,0,1,.11,2.2,5.21,5.21,0,0,1-2.09,3.57,5.48,5.48,0,0,1-3.55.92H145.09q-5.67,0-6.59-6.23L123.71,54.39a36.48,36.48,0,0,1-.58-5.86c.16-2.19,1.48-5.25,4-9.15l17.58-27.57a14.21,14.21,0,0,1,4-4.48,10.32,10.32,0,0,1,5.3-1.1h22.71a3.35,3.35,0,0,1,2.93,1.28,3.11,3.11,0,0,1,.76,2.11,5.79,5.79,0,0,1-1.09,2.47l-19.54,30.4a11.24,11.24,0,0,0-2,4.76ZM195,85.62q.51-7,7-7h67q6.5,0,6,7l-4.92,67.21q-.51,7-7,7H196q-6.51,0-6-7L195,85.62ZM360.34,63q-.51,7-7,7H209.93q-6.51,0-6-7l3.82-52.29q.51-6.95,7-7H358.18q6.49,0,6,7L360.34,63ZM321.39,23.35q.44-6-7.25-6H256.81q-7.68,0-8.12,6t7.25,5.95h57.33q7.68,0,8.12-5.95Zm-11.47,33q9.06,0,9.58-7.15l0-.36q.53-7.14-8.54-7.14H256.41q-9.06,0-9.59,7.14l0,.36q-.53,7.15,8.54,7.15ZM426,35.81A5.18,5.18,0,0,1,422.31,37H399.88Q394.39,37,393,31l-4.56-20.33a11.42,11.42,0,0,1-.28-2.47,4.58,4.58,0,0,1,1.68-2.84A5,5,0,0,1,393.5,4h21.43a6.88,6.88,0,0,1,4.58,1.28,8.77,8.77,0,0,1,2.4,4.67l5.18,20.51a8.76,8.76,0,0,1,.46,2.48A4.93,4.93,0,0,1,426,35.81ZM424.3,92.4q0,.63-.21,1.65L412.53,153.2q-1.32,6.6-7.26,6.59H382.74c-3.79,0-5.56-1.64-5.32-4.94a15.86,15.86,0,0,1,.23-1.83l12.58-59.25q1.39-6.49,7.25-6.5h21.34q5.85,0,5.48,5.13Zm.44-14.75a5.41,5.41,0,0,1-3.85,1.29H398.37q-5.6,0-6.6-6.23l-3.58-22.34a9.52,9.52,0,0,1-.2-2.29,4.92,4.92,0,0,1,2.08-3.48,5.71,5.71,0,0,1,3.55-.92H415q5.58,0,6.78,6.14l4.4,22.52a11.19,11.19,0,0,1,.28,2.38,4.56,4.56,0,0,1-1.68,2.93Zm64,62.18a25.42,25.42,0,0,1-2.64-4c-.56.92-1,1.62-1.25,2.11a15.44,15.44,0,0,1-1.75,2.56l-11.66,14.2a18.87,18.87,0,0,1-4.81,4.48,13,13,0,0,1-5.85,1H431q-3.48,0-3.25-3.11a4.74,4.74,0,0,1,1.27-2.29l10.33-13.65a10.35,10.35,0,0,0,2.49-5.13,7.93,7.93,0,0,0-2.58-6.13l-2-2.2a2.77,2.77,0,0,1-1-1.83c.12-1.59,1-2.38,2.74-2.38h25.55a33.44,33.44,0,0,1,7.56.55,22,22,0,0,1,6.5,3.75l4.06,3.3a21.6,21.6,0,0,1,3.51,4.58c.55-.79,1-1.41,1.24-1.83a8.17,8.17,0,0,1,2.95-2.75l9.32-6a4,4,0,0,0,2.14-3q.26-3.37-4.23-3.38H435.66q-6.5,0-6.06-6l.12-1.74q.43-5.94,6.94-6H545.17a5.71,5.71,0,0,1,4.55,1.65,5,5,0,0,1,1.38,3.75l-.06.74c-.24,3.29-2.29,6.35-6.16,9.15l-11.24,8.43q-4.07,3-4.33,6.59c-.14,2,.75,4,2.67,6.05l13.59,14.46a3,3,0,0,1,1,2c-.12,1.59-1,2.38-2.74,2.38H514.21c-3.18,0-5.41-.31-6.71-.92s-3.14-2.13-5.34-4.57l-13.38-14.84Zm60.41-81q6.49,0,6,7l-1.93,26.37q-.51,7-7,7H438.82q-6.49,0-6-7l1.93-26.37q.51-7,7-7ZM443.05,52.65q-6.49,0-6-6.95l2.56-34.89q.51-7,7-7H552.39q6.51,0,6,7L555.83,45.7q-.51,7-7,6.95Zm25.47,18.59c-3.29,0-5.07,1.78-5.33,5.31l-.36,5q-.39,5.31,4.55,5.31t5.43-5.31l.36-5c.26-3.53-1.29-5.31-4.65-5.31Zm6-51.64Q474.26,23,478.74,23h38.74q4.49,0,4.73-3.39c.17-2.26-1.25-3.39-4.24-3.39H479.24q-4.49,0-4.74,3.39Zm-1.24,16.94q-.27,3.75,4.67,3.75h37.82q4.95,0,5.22-3.75c.18-2.5-1.37-3.76-4.67-3.76H478.48c-3.3,0-5,1.26-5.22,3.76Zm21.54,34.7q-4.76,0-5.13,5l-.4,5.49q-.36,5,4.39,5t5.23-5l.4-5.49c.24-3.36-1.25-5-4.49-5Zm26,0q-4.66,0-5,5l-.42,5.68q-.36,4.93,4.4,4.94c3.12,0,4.79-1.65,5-4.94l.42-5.68q.36-4.95-4.4-5ZM578.13,20q-6.5,0-6-6.41l.24-3.29q.48-6.42,7-6.41H742.4q6.51,0,6,6.41l-.24,3.29q-.47,6.42-7,6.41Zm-6.76,139.92q-6.51,0-6-6.95l8.53-116.58q.51-6.95,7-7h14.93q6.49,0,6,7l-7.24,98.9c-.23,3.12.28,5.31,1.53,6.6s3.59,1.92,6.82,1.92h95.51q4.75,0,7-1.92c1.5-1.29,2.36-3.48,2.59-6.6l7.24-98.9q.51-6.95,7-7h14.93q6.5,0,6,7l-8.54,116.58q-.51,6.94-7,6.95Zm37.46-26.37q-6.5,0-6-7l6.61-90.29q.51-7,7-7h84.79q6.51,0,6,7l-6.61,90.29q-.51,7-7,7Zm31.44-89.28q-4.75,0-5.12,4.94l-1.21,16.58c-.24,3.3,1.22,4.94,4.4,4.94s4.88-1.64,5.12-4.94l1.21-16.58q.38-4.94-4.4-4.94Zm-5.44,74.36q4.75,0,5.12-5l1.78-24.27c.25-3.35-1.22-5-4.39-5s-4.89,1.68-5.13,5l-1.78,24.27q-.36,5,4.4,5Zm40.43-74.45q-4.86,0-5.23,5.13l-1.2,16.39c-.24,3.36,1.22,5,4.4,5s5-1.67,5.22-5l1.2-16.39c.25-3.42-1.22-5.13-4.39-5.13Zm-5.36,74.45q4.68,0,5-5l1.76-24.08q.38-5.13-4.38-5.13t-5.23,5.13l-1.76,24.08c-.25,3.36,1.28,5,4.57,5ZM217.44,97.19a5.4,5.4,0,0,0-5.43,4.68l-3.57,21.76a4.64,4.64,0,0,0,2.74,4.94l35.15,15.14a5,5,0,0,0,5.53-1.11,2.92,2.92,0,0,0,.45-.71,7.68,7.68,0,0,0,.68-4.58l-5.61-36.66a4.66,4.66,0,0,0-4.44-4.42Zm25.88,29.2L221.23,104.2l18,0a2.05,2.05,0,0,1,2.08,1.9Zm-1.54,7.24-23.51-9.4a1.38,1.38,0,0,1-.74-1.55l1.57-11.09Zm126.12-48L363,152.83q-.51,7-7,7h-67q-6.49,0-6-7l4.92-67.21q.51-7,7-7h67q6.51,0,6,7ZM318.36,96.23a5.59,5.59,0,0,0-5.08,4.42l-11,36.66a7.53,7.53,0,0,0,0,4.58,2.61,2.61,0,0,0,.34.71,4.65,4.65,0,0,0,5.37,1.11l37.37-15.14a5.51,5.51,0,0,0,3.46-4.94l-.39-21.76a4.53,4.53,0,0,0-4.74-4.68Zm.19,9.92a2.47,2.47,0,0,1,2.36-1.9l18,0-25.34,22.19Zm21.4,5.44-.05,11.09a1.62,1.62,0,0,1-1,1.55l-24.9,9.4Z"/></g></g></svg>