<svg viewBox="0 0 64 64" xmlns="http://www.w3.org/2000/svg"><path d="m35 63h-22c-3.314 0-6-2.686-6-6v-50c0-3.314 2.686-6 6-6h22c3.314 0 6 2.686 6 6v50c0 3.314-2.686 6-6 6z" fill="#acb7d0"/><path d="m35 63h-22c-3.314 0-6-2.686-6-6v-4h34v4c0 3.314-2.686 6-6 6z" fill="#acb7d0"/><path d="m7 9h34v44h-34z" fill="#c5e4fa"/><path d="m23 53 18.375-18.375-.375-14.625-33 33zm-16-13 31-31h-5l-26 26zm0 10 34-34v-6l-34 34z" fill="#e3f2ff"/><path d="m61 17v22c0 1.1-.9 2-2 2h-15s-1 6-8 7c2-5 1-7 1-7h-10c-.61 0-1.17-.28-1.54-.72-.29-.35-.46-.79-.46-1.28v-22c0-1.1.9-2 2-2h32c.81 0 1.51.49 1.82 1.18.12.25.18.53.18.82z" fill="#f9e3ae"/><path d="m14.502 12.996 1.238 2.264 2.264 1.238-2.264 1.238-1.238 2.264-1.238-2.264-2.264-1.238 2.264-1.238zm5.498 12.004.855 1.564 1.564.855-1.564.855-.855 1.564-.855-1.564-1.564-.855 1.564-.855zm-1.996 12.768.583 1.065 1.065.583-1.065.583-.583 1.065-.582-1.065-1.066-.583 1.066-.583z" fill="#fff8f8"/><path d="m47 21a2 2 0 1 0 0 4 2 2 0 1 0 0-4z" fill="#ffeb9b"/><path d="m57 35h-8l-3-3 4-4z" fill="#72caaf"/><path d="m49 35h-20l10-10z" fill="#97e0bb"/><g fill="#8d6c9f"><path d="m59 14h-17v-7c0-3.859-3.141-7-7-7h-22c-3.859 0-7 3.141-7 7v50c0 3.859 3.141 7 7 7h22c3.859 0 7-3.141 7-7v-10.67c1.653-1.528 2.43-3.308 2.763-4.33h14.237c1.654 0 3-1.346 3-3v-22c0-1.654-1.346-3-3-3zm-46-12h22c2.757 0 5 2.243 5 5v1h-32v-1c0-2.757 2.243-5 5-5zm22 60h-22c-2.757 0-5-2.243-5-5v-3h32v3c0 2.757-2.243 5-5 5zm5-10h-32v-42h32v4h-13c-1.654 0-3 1.346-3 3v22c0 1.654 1.346 3 3 3h9.214c.097.842.055 2.635-1.143 5.629-.133.331-.078.708.143.989.191.243.481.382.786.382.047 0 .094-.003.142-.01 1.532-.219 2.802-.664 3.858-1.234zm20-13c0 .552-.448 1-1 1h-15c-.485 0-.901.354-.985.831-.034.194-.817 4.334-5.465 5.8 1.257-4.04.453-5.861.345-6.078-.17-.339-.516-.553-.895-.553h-10c-.552 0-1-.448-1-1v-22c0-.552.448-1 1-1h32c.552 0 1 .448 1 1z"/><path d="m12 44c-.553 0-1 .447-1 1v2c0 .553.447 1 1 1s1-.447 1-1v-2c0-.553-.447-1-1-1zm5 0c-.553 0-1 .447-1 1v2c0 .553.447 1 1 1s1-.447 1-1v-2c0-.553-.447-1-1-1zm5 0c-.553 0-1 .447-1 1v2c0 .553.447 1 1 1s1-.447 1-1v-2c0-.553-.447-1-1-1zm5 0c-.553 0-1 .447-1 1v2c0 .553.447 1 1 1s1-.447 1-1v-2c0-.553-.447-1-1-1zm5 0c-.553 0-1 .447-1 1v2c0 .553.447 1 1 1s1-.447 1-1v-2c0-.553-.447-1-1-1zm-8 12a2 2 0 1 0 0 4 2 2 0 1 0 0-4zm23-30c1.654 0 3-1.346 3-3s-1.346-3-3-3-3 1.346-3 3 1.346 3 3 3zm0-4.417c.782 0 1.417.635 1.417 1.417s-.635 1.417-1.417 1.417-1.417-.635-1.417-1.417.635-1.417 1.417-1.417zm-22-15.583h4c.553 0 1-.447 1-1s-.447-1-1-1h-4c-.553 0-1 .447-1 1s.447 1 1 1zm-6 0h2c.553 0 1-.447 1-1s-.447-1-1-1h-2c-.553 0-1 .447-1 1s.447 1 1 1z"/><path d="m50.707 27.293c-.391-.391-1.023-.391-1.414 0l-3.293 3.293-6.293-6.293c-.391-.391-1.023-.391-1.414 0l-10 10c-.286.286-.372.716-.217 1.09.154.374.52.617.924.617h28c.404 0 .77-.243.924-.617.155-.374.069-.804-.217-1.09zm-19.293 6.707 7.586-7.586 7.586 7.586zm18 0-2-2 2.586-2.586 4.586 4.586z"/></g></svg>
